<svg width="146" height="32" viewBox="0 0 146 32" fill="none" xmlns="http://www.w3.org/2000/svg">
<path fill-rule="evenodd" clip-rule="evenodd" d="M95.6565 0.783433C51.5004 4.76743 36.2283 6.09527 25.6873 6.84227C7.34434 8.17027 4.10734 8.83427 5.10334 11.4073C6.92934 16.1386 23.9444 16.0556 85.2815 10.9923C101.882 9.58127 117.236 8.50227 119.311 8.50227C129.437 8.41927 129.52 -2.28757 95.6565 0.783433ZM93.1665 16.8026C88.1035 17.2176 18.5495 23.7746 13.5695 24.2726C-0.374499 25.5176 -2.28366 26.5136 3.27734 30.0826C10.9963 34.9796 79.8865 25.6006 123.959 24.3556C144.46 23.7746 146.618 23.3596 145.456 20.4546C143.879 15.9726 122.382 14.4783 93.1665 16.8026Z" fill="white"/>
</svg>
