<svg width="349" height="32" viewBox="0 0 349 32" fill="none" xmlns="http://www.w3.org/2000/svg">
<path fill-rule="evenodd" clip-rule="evenodd" d="M348.086 9.9339C346.665 6.25173 334.456 4.70135 297.763 3.40936C263.525 2.18197 223.667 -1.37101 154.029 0.566971C100.799 2.05276 34.5201 7.99592 34.5201 11.2905C34.5201 13.6807 37.1041 13.7453 61.7811 11.6135C84.5847 9.6755 96.2772 9.22331 110.554 8.70651C53.3186 13.7453 41.1093 17.0399 10.6183 20.2052C-8.50314 22.2078 2.67257 27.9572 9.64931 27.3758C9.71391 27.3758 98.6674 20.1406 107.065 20.5282C107.841 20.5928 99.378 21.7556 88.2023 23.1122C57.0007 26.9882 63.0085 33.4475 86.3935 30.4759C165.076 20.463 239.107 17.3622 296.148 21.6904C314.171 23.0469 316.174 23.0469 316.174 21.3674C316.174 18.3958 311.264 16.1355 303.577 15.6833C291.561 14.9081 245.308 12.711 224.378 12.065C222.763 12.0004 223.538 10.7737 224.959 10.6445C233.487 9.8047 301.187 10.4501 327.802 11.3544C347.375 12.0004 348.797 11.9365 348.086 9.9339Z" fill="white"/>
</svg>
