<svg width="76" height="103" viewBox="0 0 76 103" fill="none" xmlns="http://www.w3.org/2000/svg">
<path fill-rule="evenodd" clip-rule="evenodd" d="M75.2662 0.0859515C75.2662 0.391413 73.8706 1.68829 73.0175 2.17566C72.8611 2.26501 72.8612 2.2501 73.0188 2.04962C73.2653 1.73599 73.6093 1.10033 73.6093 0.958073C73.6093 0.893454 73.2497 1.19785 72.8104 1.63456C71.8392 2.59959 71.3349 2.94955 69.4494 3.96677C66.2513 5.69208 64.7038 6.99511 63.8081 8.71722C63.5284 9.25489 63.2264 9.89398 63.1371 10.1374C63.0476 10.3809 62.9707 10.4881 62.966 10.3757C62.9501 9.98404 63.5525 8.59556 64.0872 7.79125C65.0652 6.31992 66.2849 5.39561 69.9708 3.33241C70.7361 2.9041 71.3452 2.53663 71.3245 2.51592C71.3038 2.4952 70.7576 2.70871 70.1106 2.9905C65.5662 4.96967 63.4248 6.59592 62.3047 8.91794C62.0208 9.50662 61.7043 10.3197 61.6013 10.7248C61.3682 11.6432 61.0692 13.6005 61.0542 14.3081C61.0437 14.8021 61.0358 14.815 60.9462 14.4856C60.8929 14.2903 60.814 13.8243 60.7708 13.45C60.7275 13.0758 60.6465 12.7695 60.5908 12.7695C60.535 12.7695 60.4567 13.0758 60.4166 13.45C60.2318 15.1761 60.2014 15.3311 60.1096 15.0182C60.0617 14.8554 60.0114 14.3761 59.9977 13.953L59.9729 13.1838L59.8083 13.8347C59.7179 14.1927 59.5894 15.2312 59.5226 16.1425C59.2039 20.501 59.065 21.0098 56.9535 25.5513C56.3331 26.8857 55.0532 29.6818 54.1091 31.7647C51.2215 38.136 47.0622 47.1371 44.3472 52.8902C43.4718 54.7453 42.607 56.5961 42.4257 57.0029C42.2442 57.4098 42.0613 57.7426 42.019 57.7426C41.947 57.7426 41.1813 56.274 41.1813 56.1356C41.1813 56.1005 41.235 56.1048 41.3005 56.1453C41.479 56.2557 41.5744 55.8945 41.4315 55.6491C41.3154 55.4494 41.3067 55.4489 41.3032 55.6418C41.2974 55.9757 41.097 55.8801 40.9562 55.4763C40.7781 54.9652 40.7994 54.7975 41.0076 55.0727C41.2815 55.4348 41.2138 55.1935 40.7752 54.2441C40.4671 53.5775 40.324 53.3821 40.1834 53.436C40.0802 53.4757 39.9978 53.446 39.9978 53.3693C39.9978 53.2934 40.0568 53.2677 40.1289 53.3122C40.3111 53.4249 40.1618 52.7885 39.8255 52.0202C39.6788 51.685 39.4104 51.0647 39.2288 50.6416C38.8013 49.645 37.6448 47.3278 37.5749 47.3278C37.5452 47.3278 37.6301 47.5807 37.7635 47.8899C38.2199 48.9474 38.4587 49.6458 38.2854 49.4165C38.1944 49.2961 37.8989 48.6304 37.6288 47.9371C37.3588 47.244 37.0635 46.6001 36.9728 46.5064C36.6698 46.1929 36.6457 46.489 36.9306 47.026C37.1379 47.4169 37.1774 47.5918 37.0802 47.6891C36.9829 47.7864 36.8945 47.6703 36.745 47.249C36.6333 46.9344 36.3875 46.292 36.1987 45.8215C36.01 45.3511 35.8556 44.9301 35.8556 44.886C35.8556 44.745 36.355 45.2438 36.5821 45.6117C36.7029 45.807 36.8017 45.9251 36.8019 45.8741C36.8025 45.7475 36.2414 44.6498 35.8987 44.1067C35.7448 43.8631 35.6189 43.606 35.6189 43.5356C35.6189 43.3433 35.0264 42.1293 34.6997 41.652C34.2695 41.024 33.4489 39.3538 32.5223 37.2204C32.0671 36.1725 31.0653 34.037 30.2961 32.4748C29.5269 30.9126 28.4592 28.6758 27.9234 27.5041C27.3878 26.3324 26.7452 24.9665 26.4958 24.4687C26.2462 23.9709 25.85 22.9091 25.6153 22.109C25.3807 21.3091 25.1462 20.5713 25.0944 20.4696C25.0424 20.368 24.9689 20.0081 24.9308 19.6698C24.8342 18.8104 24.5748 18.3596 24.1078 18.2393C23.7931 18.1582 23.6825 18.0361 23.488 17.5554C23.3578 17.2335 22.945 16.448 22.5708 15.8099C22.1965 15.1718 21.8903 14.5996 21.8903 14.5382C21.8903 14.3106 22.1263 14.4367 22.2903 14.7519C22.3834 14.931 22.7357 15.4502 23.073 15.9058C23.4102 16.3615 23.7307 16.8137 23.7853 16.9108C23.8399 17.0079 23.9171 17.0546 23.9571 17.0146C24.0911 16.8807 23.6926 15.9562 23.0254 14.8533C22.6614 14.2519 22.3637 13.6942 22.3637 13.6141C22.3637 13.5338 22.238 13.351 22.0843 13.2077C21.9305 13.0643 21.7715 12.8405 21.7305 12.7104C21.6571 12.4764 21.7032 12.474 25.7706 12.5062C29.016 12.5318 29.9297 12.506 30.0969 12.3837C30.3715 12.1829 30.4821 11.3603 30.2722 11.0803C30.1231 10.8815 29.3412 10.8707 15.2031 10.8737C1.35074 10.8765 0.280852 10.891 0.143448 11.0765C-0.0527768 11.3414 -0.0460301 12.2327 0.153508 12.3983C0.259905 12.4866 1.52696 12.5397 4.02947 12.5608L7.74744 12.592L8.18782 13.4796C8.42997 13.9678 8.99804 15.1927 9.45002 16.2017C9.90212 17.2106 10.8135 19.2344 11.4753 20.699C13.3759 24.9042 15.5517 29.7678 16.77 32.534C17.3862 33.9335 18.6233 36.6762 19.519 38.629C20.4147 40.5818 21.3209 42.579 21.5329 43.0671C21.7447 43.5553 22.1985 44.5672 22.541 45.3158C24.4747 49.5414 26.956 55.0703 30.7472 63.6009C36.185 75.8359 35.6862 74.7715 36.0439 74.9073C36.447 75.0607 38.8065 75.0534 39.2538 74.8974C39.4498 74.8291 39.6771 74.6293 39.7588 74.4536C39.8406 74.2778 40.8898 71.9553 42.0906 69.2923C43.2913 66.6295 44.5859 63.7802 44.9676 62.9606C45.3492 62.1412 46.1119 60.4587 46.6627 59.2219C47.2134 57.9852 48.5006 55.1093 49.5232 52.831C50.5458 50.5528 51.7698 47.81 52.2432 46.736C53.3642 44.193 54.1944 42.342 56.0914 38.1556C58.1428 33.6286 58.9166 31.8092 60.4199 27.9775C61.7798 24.5115 62.4498 23.1809 63.3355 22.187C64.1826 21.2366 64.9247 20.7472 66.4758 20.1156C68.8083 19.166 70.2001 18.4023 71.6282 17.2884C72.4559 16.6427 72.4473 16.49 71.6168 17.0866C71.2894 17.3219 70.542 17.7222 69.9562 17.9763C69.3703 18.2304 68.6158 18.5778 68.2796 18.7482C67.9434 18.9185 67.6438 19.0336 67.614 19.0037C67.5342 18.9241 68.0764 18.5741 69.401 17.8505C71.1034 16.9204 72.9877 15.0449 73.9708 13.3021C74.1968 12.9015 74.0588 13.0017 73.0742 13.953C71.8641 15.1224 71.849 15.11 72.8587 13.7729C73.9947 12.2682 74.5355 11.2487 74.8361 10.0448C75.1789 8.67154 75.3085 7.75871 75.1464 7.85883C75.0821 7.8986 75.0295 8.06121 75.0295 8.22027C75.0295 8.66136 74.3802 10.4389 73.879 11.3698C73.3291 12.391 72.44 13.4863 71.5887 14.1908L70.9464 14.7223L71.643 13.953C72.5088 12.9968 73.4985 11.504 74.0315 10.3502C74.7607 8.77226 74.9019 7.70817 74.8083 4.49934C74.7904 3.88889 74.7361 3.43621 74.6873 3.49337C74.6387 3.55065 74.451 3.9844 74.2703 4.45757C73.9785 5.22152 72.8822 7.08873 72.7255 7.08873C72.6924 7.08873 72.8439 6.80906 73.062 6.46739C73.6154 5.60024 74.0009 4.80859 74.3692 3.7825C74.7638 2.68374 75.4235 0.105598 75.3333 0.0154148C75.2963 -0.0215104 75.2662 0.0102075 75.2662 0.0859515ZM74.0486 1.73741C73.4964 2.29815 73.2595 2.71865 73.7406 2.2843C74.0125 2.03885 74.7216 1.17122 74.6503 1.17122C74.6261 1.17122 74.3553 1.42603 74.0486 1.73741ZM72.5441 3.24235C72.5441 3.27489 72.5707 3.30152 72.6033 3.30152C72.6358 3.30152 72.6625 3.27489 72.6625 3.24235C72.6625 3.2098 72.6358 3.18317 72.6033 3.18317C72.5707 3.18317 72.5441 3.2098 72.5441 3.24235ZM65.1472 4.93428C62.9825 6.12902 61.6518 7.77113 61.115 9.90984C60.876 10.8626 60.9766 11.0027 61.2413 10.0858C61.8021 8.14465 63.4648 6.07222 65.3543 4.95961C65.5985 4.81593 65.7982 4.67699 65.7982 4.65083C65.7982 4.57746 65.7773 4.58645 65.1472 4.93428ZM74.5654 4.90907C74.5711 5.04695 74.5991 5.075 74.6369 4.98067C74.6711 4.89523 74.6668 4.79309 74.6276 4.7538C74.5883 4.71451 74.5603 4.78433 74.5654 4.90907ZM74.4377 5.31347C74.4377 5.40023 74.4732 5.43573 74.5167 5.39241C74.56 5.34898 74.56 5.27797 74.5167 5.23454C74.4732 5.19122 74.4377 5.22672 74.4377 5.31347ZM74.3194 5.66852C74.3194 5.75528 74.3549 5.79078 74.3983 5.74746C74.4416 5.70403 74.4416 5.63302 74.3983 5.58959C74.3549 5.54627 74.3194 5.58177 74.3194 5.66852ZM72.4258 7.3846C72.4258 7.41715 72.4524 7.44378 72.4849 7.44378C72.5175 7.44378 72.5441 7.41715 72.5441 7.3846C72.5441 7.35205 72.5175 7.32543 72.4849 7.32543C72.4524 7.32543 72.4258 7.35205 72.4258 7.3846ZM66.2716 9.63325C66.2716 9.6658 66.2982 9.69243 66.3307 9.69243C66.3633 9.69243 66.3899 9.6658 66.3899 9.63325C66.3899 9.60071 66.3633 9.57408 66.3307 9.57408C66.2982 9.57408 66.2716 9.60071 66.2716 9.63325ZM66.001 10.4279C65.8933 10.7649 65.8248 11.0603 65.8487 11.0843C65.8727 11.1084 65.9831 10.8547 66.094 10.5209C66.2049 10.187 66.2735 9.89161 66.2464 9.86451C66.2192 9.83729 66.1088 10.0909 66.001 10.4279ZM65.6798 11.2902C65.6798 11.3227 65.7064 11.3493 65.739 11.3493C65.7715 11.3493 65.7982 11.3227 65.7982 11.2902C65.7982 11.2576 65.7715 11.231 65.739 11.231C65.7064 11.231 65.6798 11.2576 65.6798 11.2902ZM20.8251 12.577C20.8251 12.7491 21.3321 13.7163 21.4224 13.7163C21.4845 13.7163 21.5352 13.8463 21.5352 14.0052C21.5352 14.1642 21.5885 14.327 21.6536 14.3673C21.8506 14.489 21.782 13.9275 21.5326 13.378C21.4039 13.0942 21.2985 12.788 21.2985 12.6975C21.2985 12.6069 21.192 12.5328 21.0618 12.5328C20.9316 12.5328 20.8251 12.5527 20.8251 12.577ZM22.0086 13.7093C22.0086 13.7707 22.0613 13.8533 22.1257 13.893C22.1927 13.9344 22.2125 13.887 22.1722 13.7817C22.0935 13.5767 22.0086 13.5392 22.0086 13.7093ZM22.9554 13.8939C22.9554 13.9915 23.007 14.0714 23.0701 14.0714C23.1331 14.0714 23.154 13.9915 23.1166 13.8939C23.0791 13.7962 23.0275 13.7163 23.0019 13.7163C22.9764 13.7163 22.9554 13.7962 22.9554 13.8939ZM22.2453 14.1306C22.2453 14.1631 22.272 14.1897 22.3045 14.1897C22.337 14.1897 22.3637 14.1631 22.3637 14.1306C22.3637 14.098 22.337 14.0714 22.3045 14.0714C22.272 14.0714 22.2453 14.098 22.2453 14.1306ZM22.3637 14.3673C22.3637 14.3998 22.3903 14.4264 22.4229 14.4264C22.4554 14.4264 22.482 14.3998 22.482 14.3673C22.482 14.3347 22.4554 14.3081 22.4229 14.3081C22.3903 14.3081 22.3637 14.3347 22.3637 14.3673ZM22.482 14.604C22.482 14.6365 22.5087 14.6631 22.5412 14.6631C22.5738 14.6631 22.6004 14.6365 22.6004 14.604C22.6004 14.5714 22.5738 14.5448 22.5412 14.5448C22.5087 14.5448 22.482 14.5714 22.482 14.604ZM60.2357 15.4916C60.2357 15.5783 60.2712 15.6138 60.3146 15.5705C60.358 15.5271 60.358 15.4561 60.3146 15.4126C60.2712 15.3693 60.2357 15.4048 60.2357 15.4916ZM24.9692 17.8812C24.9682 18.0563 25.0206 18.2326 25.0857 18.2728C25.2369 18.3662 25.2369 17.9741 25.0857 17.7402C24.996 17.6014 24.9706 17.6321 24.9692 17.8812ZM24.0993 19.1013C24.1381 19.3616 24.2409 19.7344 24.3278 19.9297L24.4859 20.2848L24.4153 19.8114C24.3765 19.551 24.2736 19.1782 24.1867 18.9829L24.0286 18.6279L24.0993 19.1013ZM25.2783 19.1604C25.3176 19.3883 25.3951 19.6545 25.4507 19.7522C25.6313 20.0689 25.5668 19.4945 25.3777 19.1013L25.207 18.7462L25.2783 19.1604ZM23.4288 19.2196C23.4288 19.2522 23.4555 19.2788 23.488 19.2788C23.5206 19.2788 23.5472 19.2522 23.5472 19.2196C23.5472 19.1871 23.5206 19.1604 23.488 19.1604C23.4555 19.1604 23.4288 19.1871 23.4288 19.2196ZM25.9142 20.7659C25.9142 20.9491 26.4305 22.0008 26.5205 22.0008C26.6864 22.0008 26.6423 21.7577 26.3771 21.2098C26.1675 20.7769 25.9142 20.5339 25.9142 20.7659ZM24.0581 21.9121C24.1386 22.2217 24.206 22.3319 24.2336 22.1986C24.2922 21.9144 24.1625 21.4091 24.0309 21.4091C23.974 21.4091 23.9863 21.6355 24.0581 21.9121ZM25.0857 24.9004C25.0857 24.9981 25.1373 25.0779 25.2004 25.0779C25.2634 25.0779 25.2843 24.9981 25.2469 24.9004C25.2094 24.8028 25.1578 24.7229 25.1322 24.7229C25.1067 24.7229 25.0857 24.8028 25.0857 24.9004ZM27.8083 26.1711C27.8073 26.3446 28.9288 28.5101 29.0195 28.5101C29.0707 28.5101 28.9254 28.1384 28.6966 27.684C28.2288 26.755 27.8088 26.04 27.8083 26.1711ZM26.861 26.411C26.861 26.5471 27.3553 27.7499 27.4502 27.8448C27.6593 28.0538 27.5895 27.7505 27.2666 27.045C27.0127 26.4906 26.861 26.2534 26.861 26.411ZM26.0325 28.8582C26.0325 28.9195 26.0852 29.0021 26.1496 29.0418C26.2166 29.0833 26.2364 29.0358 26.1961 28.9305C26.1174 28.7255 26.0325 28.688 26.0325 28.8582ZM26.2692 29.2794C26.2692 29.3119 26.2959 29.3385 26.3284 29.3385C26.361 29.3385 26.3876 29.3119 26.3876 29.2794C26.3876 29.2468 26.361 29.2202 26.3284 29.2202C26.2959 29.2202 26.2692 29.2468 26.2692 29.2794ZM26.3876 29.5752C26.3876 29.662 26.4231 29.6975 26.4665 29.6542C26.5098 29.6107 26.5098 29.5397 26.4665 29.4963C26.4231 29.453 26.3876 29.4885 26.3876 29.5752ZM28.5229 30.485C28.5127 30.7729 29.8006 34.1057 29.8162 33.8316C29.8181 33.7968 29.5291 32.9979 29.1738 32.0563C28.8185 31.1149 28.5256 30.4077 28.5229 30.485ZM30.1248 30.8771C30.3712 31.3914 30.4115 31.4376 30.4115 31.2058C30.4115 31.1046 30.3024 30.8959 30.169 30.7423L29.9264 30.4629L30.1248 30.8771ZM29.2317 31.0546C29.2317 31.1197 29.2833 31.2529 29.3463 31.3505C29.4094 31.4481 29.461 31.4748 29.461 31.4097C29.461 31.3446 29.4094 31.2114 29.3463 31.1138C29.2833 31.0162 29.2317 30.9895 29.2317 31.0546ZM27.7562 31.6219C27.8007 31.7386 27.8668 31.8042 27.9033 31.7678C27.9397 31.7315 27.9034 31.636 27.8225 31.5556C27.7055 31.4396 27.692 31.4532 27.7562 31.6219ZM30.3612 34.3684C30.4063 34.4986 30.4393 34.6984 30.4347 34.8122C30.4299 34.9261 30.4788 35.0193 30.5432 35.0193C30.6076 35.0193 30.7381 35.2057 30.8333 35.4336C30.9286 35.6614 31.0331 35.8478 31.0656 35.8478C31.0982 35.8478 31.0524 35.6748 30.9638 35.4632C30.7596 34.9747 30.2518 34.0524 30.3612 34.3684ZM29.7681 35.2907C29.8126 35.4074 29.8788 35.4731 29.9152 35.4366C29.9517 35.4003 29.9154 35.3048 29.8344 35.2244C29.7175 35.1085 29.704 35.1221 29.7681 35.2907ZM29.9381 35.6703C29.9381 35.7028 29.9647 35.7294 29.9973 35.7294C30.0298 35.7294 30.0564 35.7028 30.0564 35.6703C30.0564 35.6377 30.0298 35.6111 29.9973 35.6111C29.9647 35.6111 29.9381 35.6377 29.9381 35.6703ZM31.4814 36.9279C31.4733 37.0538 32.0616 38.3331 32.1277 38.3331C32.1619 38.3331 32.1161 38.1563 32.0258 37.9402C31.8196 37.4469 31.4876 36.8295 31.4814 36.9279ZM31.0032 37.0803C31.0032 37.2162 31.8344 38.85 31.9717 38.9841C32.0383 39.0492 31.8681 38.6497 31.5934 38.0964C31.0782 37.0584 31.0032 36.9294 31.0032 37.0803ZM32.1902 40.1241C32.1883 40.1653 32.6961 41.3636 33.3186 42.787C34.4808 45.4441 35.5994 47.6828 35.7647 47.6828C35.8159 47.6828 35.6255 47.2169 35.3415 46.6472C35.0574 46.0777 34.5755 44.9992 34.2705 44.2507C33.7882 43.067 32.1998 39.9161 32.1902 40.1241ZM33.0234 40.8387C32.9889 41.1721 35.8174 47.1213 36.2773 47.6828C36.3573 47.7804 36.5036 48.1 36.6025 48.3929C36.8539 49.1371 37.1558 49.6959 37.1567 49.4188C37.1576 49.1751 36.4966 47.6016 36.2783 47.3278C36.2006 47.2301 35.8 46.4046 35.3882 45.4933C34.9765 44.582 34.5275 43.65 34.3904 43.4222C34.2534 43.1944 33.8916 42.502 33.5865 41.8836C33.2812 41.2653 33.028 40.7951 33.0234 40.8387ZM32.4979 41.6469C32.612 42.1047 33.2466 43.4669 33.3143 43.3992C33.3475 43.3661 33.1608 42.8916 32.8994 42.345C32.638 41.7983 32.4574 41.4842 32.4979 41.6469ZM34.7951 43.379C34.7926 43.453 34.8682 43.6926 34.9633 43.9116C35.0584 44.1306 35.1383 44.2493 35.1409 44.1755C35.1434 44.1015 35.0677 43.8619 34.9726 43.6429C34.8775 43.4239 34.7977 43.3052 34.7951 43.379ZM35.1455 44.4282C35.1455 44.4607 35.1721 44.4874 35.2047 44.4874C35.2372 44.4874 35.2638 44.4607 35.2638 44.4282C35.2638 44.3956 35.2372 44.369 35.2047 44.369C35.1721 44.369 35.1455 44.3956 35.1455 44.4282ZM35.3309 44.8673C35.502 45.4062 36.4344 47.254 36.3635 46.9135C36.2751 46.4889 35.424 44.6057 35.3204 44.6057C35.2805 44.6057 35.2853 44.7233 35.3309 44.8673ZM33.9657 44.7832C33.9657 44.8483 34.0173 44.9815 34.0803 45.0791C34.1434 45.1767 34.195 45.2034 34.195 45.1383C34.195 45.0732 34.1434 44.94 34.0803 44.8424C34.0173 44.7448 33.9657 44.7181 33.9657 44.7832ZM34.2024 45.375C34.2024 45.4401 34.254 45.5732 34.317 45.6709C34.3801 45.7685 34.4317 45.7951 34.4317 45.73C34.4317 45.6649 34.3801 45.5318 34.317 45.4342C34.254 45.3365 34.2024 45.3099 34.2024 45.375ZM36.8024 46.1443C36.8024 46.231 36.8379 46.2665 36.8813 46.2232C36.9246 46.1798 36.9246 46.1087 36.8813 46.0653C36.8379 46.022 36.8024 46.0575 36.8024 46.1443ZM34.5569 46.2034C34.5498 46.3686 35.296 48.1634 35.3495 48.1099C35.3737 48.0859 35.2062 47.6204 34.9777 47.0757C34.749 46.5308 34.5598 46.1383 34.5569 46.2034ZM35.864 48.9406C35.852 49.1308 36.2135 49.968 36.2792 49.9023C36.3093 49.8723 36.2301 49.6134 36.1032 49.3274C35.9762 49.0412 35.8685 48.8672 35.864 48.9406ZM38.1042 49.7539C38.1042 49.7865 38.1309 49.8131 38.1634 49.8131C38.196 49.8131 38.2226 49.7865 38.2226 49.7539C38.2226 49.7214 38.196 49.6948 38.1634 49.6948C38.1309 49.6948 38.1042 49.7214 38.1042 49.7539ZM38.2263 49.9906C38.2263 50.0557 38.2779 50.1889 38.3409 50.2865C38.404 50.3841 38.4556 50.4108 38.4556 50.3457C38.4556 50.2806 38.404 50.1474 38.3409 50.0498C38.2779 49.9522 38.2263 49.9255 38.2263 49.9906ZM37.5049 50.3161C37.7608 50.9656 37.977 51.3997 37.9813 51.2727C37.9872 51.0971 37.5411 50.0498 37.4604 50.0498C37.4272 50.0498 37.4472 50.1696 37.5049 50.3161ZM38.2325 51.8842C38.2325 51.9493 38.3346 52.189 38.4593 52.4168C38.584 52.6446 38.6861 52.7778 38.6861 52.7127C38.6861 52.6476 38.584 52.4079 38.4593 52.1801C38.3346 51.9523 38.2325 51.8191 38.2325 51.8842ZM39.6592 52.6497C39.7281 52.8472 39.8304 53.0373 39.8864 53.072C39.9425 53.1067 39.932 52.9733 39.863 52.7756C39.7942 52.5781 39.6919 52.388 39.6359 52.3534C39.5798 52.3187 39.5902 52.4521 39.6592 52.6497ZM39.2895 52.9128C39.2886 53.0229 39.341 53.1458 39.4061 53.1861C39.5559 53.2786 39.5559 53.1219 39.4061 52.8902C39.3073 52.7372 39.2912 52.7404 39.2895 52.9128ZM39.2877 53.7117C39.2877 53.773 39.3404 53.8556 39.4048 53.8954C39.4718 53.9368 39.4917 53.8893 39.4513 53.784C39.3726 53.579 39.2877 53.5415 39.2877 53.7117ZM37.6308 53.7778C37.6308 53.8104 37.6575 53.837 37.69 53.837C37.7226 53.837 37.7492 53.8104 37.7492 53.7778C37.7492 53.7453 37.7226 53.7187 37.69 53.7187C37.6575 53.7187 37.6308 53.7453 37.6308 53.7778ZM37.7492 54.0145C37.7492 54.0471 37.7758 54.0737 37.8084 54.0737C37.8409 54.0737 37.8675 54.0471 37.8675 54.0145C37.8675 53.982 37.8409 53.9554 37.8084 53.9554C37.7758 53.9554 37.7492 53.982 37.7492 54.0145ZM39.592 54.3104C39.8545 55.2953 41.3758 58.8077 41.5397 58.8077C41.5879 58.8077 41.6562 58.6613 41.6917 58.4822C41.7402 58.2377 41.6847 58.0893 41.4688 57.8858C41.3107 57.7366 41.1813 57.5293 41.1813 57.425C41.1813 57.0777 40.3373 55.0841 40.0631 54.7838C39.9144 54.6211 39.7299 54.3814 39.653 54.2512C39.5249 54.0344 39.5198 54.0394 39.592 54.3104ZM37.8675 54.2512C37.8675 54.2838 37.8942 54.3104 37.9267 54.3104C37.9593 54.3104 37.9859 54.2838 37.9859 54.2512C37.9859 54.2187 37.9593 54.1921 37.9267 54.1921C37.8942 54.1921 37.8675 54.2187 37.8675 54.2512ZM40.3529 54.2652C40.3529 54.3303 40.4311 54.4869 40.5266 54.6133C40.6223 54.7395 40.7004 54.7897 40.7004 54.7246C40.7004 54.6595 40.6223 54.5028 40.5266 54.3766C40.4311 54.2502 40.3529 54.2001 40.3529 54.2652ZM37.9859 54.4879C37.9859 54.5205 38.0125 54.5471 38.0451 54.5471C38.0776 54.5471 38.1042 54.5205 38.1042 54.4879C38.1042 54.4554 38.0776 54.4288 38.0451 54.4288C38.0125 54.4288 37.9859 54.4554 37.9859 54.4879ZM38.1042 54.7246C38.1042 54.7572 38.1309 54.7838 38.1634 54.7838C38.196 54.7838 38.2226 54.7572 38.2226 54.7246C38.2226 54.6921 38.196 54.6655 38.1634 54.6655C38.1309 54.6655 38.1042 54.6921 38.1042 54.7246ZM38.2226 54.9613C38.2226 54.9939 38.2492 55.0205 38.2818 55.0205C38.3143 55.0205 38.3409 54.9939 38.3409 54.9613C38.3409 54.9288 38.3143 54.9022 38.2818 54.9022C38.2492 54.9022 38.2226 54.9288 38.2226 54.9613ZM38.3409 55.198C38.3409 55.2306 38.3676 55.2572 38.4001 55.2572C38.4327 55.2572 38.4593 55.2306 38.4593 55.198C38.4593 55.1655 38.4327 55.1389 38.4001 55.1389C38.3676 55.1389 38.3409 55.1655 38.3409 55.198ZM39.5331 55.1389C39.5157 55.3259 40.2773 57.2894 40.7122 58.1788C41.299 59.3786 41.2771 59.3431 41.3714 59.2488C41.4109 59.2094 41.1696 58.5747 40.8352 57.8385C40.0947 56.2079 39.5405 55.0592 39.5331 55.1389ZM38.5075 55.4939C38.5375 55.5915 38.824 56.2573 39.1441 56.9733C39.4642 57.6893 39.7589 58.3684 39.799 58.4822C39.8393 58.5961 39.9209 58.6894 39.9806 58.6894C40.0403 58.6894 39.9487 58.3839 39.7772 58.0106C39.345 57.0701 38.4407 55.2778 38.5075 55.4939ZM41.7139 56.6774C41.7542 56.7425 41.8137 56.7958 41.8462 56.7958C41.8788 56.7958 41.8725 56.7425 41.8323 56.6774C41.792 56.6123 41.7325 56.5591 41.7 56.5591C41.6674 56.5591 41.6737 56.6123 41.7139 56.6774ZM41.1813 56.7366C41.1813 56.7691 41.208 56.7958 41.2405 56.7958C41.2731 56.7958 41.2997 56.7691 41.2997 56.7366C41.2997 56.704 41.2731 56.6774 41.2405 56.6774C41.208 56.6774 41.1813 56.704 41.1813 56.7366ZM38.696 56.8411C38.696 56.9681 39.0481 57.6242 39.1163 57.6242C39.1488 57.6242 39.0875 57.4512 38.9799 57.2396C38.7601 56.8076 38.696 56.7175 38.696 56.8411ZM40.4721 59.1332C40.4724 59.1821 40.5786 59.3817 40.7079 59.577C40.9865 59.9977 41.02 59.8885 40.764 59.3935C40.5895 59.0559 40.4704 58.9497 40.4721 59.1332ZM28.5771 80.3117C27.8083 80.4138 26.7094 80.8645 26.0551 81.3461C24.7332 82.3193 23.9958 83.8843 23.9886 85.7324C23.9762 88.927 26.1986 91.1173 29.4523 91.1173C30.6848 91.1173 31.597 90.9021 32.7489 90.3397L33.6069 89.9209V87.6786V85.4365H31.7133C30.6719 85.4365 29.8159 85.4764 29.8114 85.5252C29.8068 85.5741 29.7937 85.8537 29.7821 86.1466L29.761 86.6792L30.9189 86.7131L32.0766 86.747L32.0429 87.9551L32.0092 89.1632L31.2399 89.4459C29.5008 90.0853 27.663 89.7097 26.5675 88.4912C25.8736 87.7194 25.6162 86.9485 25.6264 85.6732C25.6332 84.8327 25.6898 84.5445 25.9708 83.9216C26.771 82.1465 28.7072 81.288 30.6072 81.8657C31.0528 82.0012 31.6009 82.2477 31.8251 82.4132C32.0493 82.5789 32.2915 82.7144 32.3632 82.7144C32.435 82.7144 32.7005 82.5027 32.9531 82.244C33.3937 81.7928 33.4041 81.7644 33.2072 81.5469C32.857 81.16 31.6374 80.5807 30.7985 80.4029C30.0286 80.2398 29.3333 80.2113 28.5771 80.3117ZM71.5381 80.387C69.906 80.9297 69.1565 81.9984 69.2497 83.6499C69.2885 84.3367 69.358 84.567 69.6529 84.9876C70.0678 85.5793 71.0805 86.1408 72.1521 86.3731C73.2475 86.6107 74.0363 87.0155 74.2648 87.4573C74.5216 87.9539 74.4318 88.6725 74.0628 89.0734C73.2077 90.0024 71.5857 90.0388 70.5499 89.1522C70.2916 88.9311 70.0356 88.7511 69.9808 88.7521C69.926 88.753 69.6706 88.9321 69.413 89.1498C68.9555 89.537 68.9492 89.5526 69.1375 89.8399C69.4058 90.2494 70.3641 90.8373 71.0378 91.0056C71.3545 91.0847 72.0302 91.1243 72.5763 91.0955C73.3988 91.0523 73.6667 90.9822 74.3008 90.6442C75.4618 90.0254 75.961 89.2052 75.9711 87.8999C75.9775 87.0717 75.8352 86.6762 75.3477 86.1658C74.8482 85.6429 74.3556 85.4014 72.9174 84.9742C71.5314 84.5625 71.4039 84.5026 71.0056 84.0768C70.6403 83.6864 70.6035 82.9252 70.926 82.433C71.5241 81.5203 73.2092 81.4024 74.2818 82.1982C74.4891 82.3519 74.7046 82.4777 74.7608 82.4777C74.817 82.4777 75.0698 82.266 75.3224 82.0073C75.774 81.5449 75.778 81.5329 75.5622 81.2943C75.4413 81.1608 75.0112 80.8885 74.6062 80.6892C73.7322 80.2589 72.3364 80.1214 71.5381 80.387ZM0.11386 80.562C0.11386 80.6149 0.61105 81.9597 1.2189 83.5503C1.82662 85.141 2.68561 87.4011 3.12764 88.5728C3.5698 89.7444 3.9845 90.7697 4.04912 90.851C4.12072 90.9411 4.45648 90.9989 4.90716 90.9989H5.64767L6.26996 89.3124C6.61211 88.3849 7.49737 86.0601 8.23705 84.1463C8.97674 82.2325 9.58187 80.6214 9.58187 80.5663C9.58187 80.511 9.21853 80.4658 8.77448 80.4658H7.9671L7.0661 82.9215C6.57045 84.2723 5.88615 86.1603 5.5453 87.1174C5.20445 88.0745 4.88929 88.8351 4.84491 88.8077C4.80052 88.7802 4.08273 86.8921 3.24978 84.6118L1.73538 80.4658H0.924676C0.478733 80.4658 0.11386 80.5091 0.11386 80.562ZM11.1746 80.6137C11.1434 80.6951 11.1317 83.0517 11.1487 85.8507L11.1796 90.9398L11.9193 90.975L12.659 91.0102V85.738V80.4658H11.9452C11.4833 80.4658 11.2113 80.518 11.1746 80.6137ZM15.1443 85.6578V90.8698L15.5399 90.944C15.7574 90.9849 16.0903 91.0006 16.2795 90.979L16.6237 90.9398L16.6558 88.6023L16.6878 86.2649H17.5058C18.4881 86.2649 18.3645 86.1291 19.7672 88.7503C20.3071 89.7592 20.8276 90.678 20.9237 90.7918C21.0588 90.9518 21.2826 90.9989 21.9086 90.9989C22.3542 90.9989 22.7187 90.9754 22.7187 90.9466C22.7187 90.9179 22.1058 89.8393 21.3568 88.55L19.9948 86.2058L20.4495 86.0711C21.4675 85.7694 22.038 85.368 22.3602 84.7264C22.674 84.1018 22.7474 83.4817 22.5946 82.7456C22.4792 82.1897 22.3581 81.984 21.848 81.4779C21.5125 81.1447 21.0269 80.8005 20.766 80.7104C20.4421 80.5987 19.4794 80.5311 17.7184 80.4964L15.1443 80.4458V85.6578ZM35.9739 85.6732V90.8806H36.7432H37.5125V85.6732V80.4658H36.7432H35.9739V85.6732ZM40.1162 85.7269V90.9989H40.8263H41.5364V86.975C41.5364 83.341 41.5938 82.5498 41.8155 83.1275C41.8526 83.2244 42.6723 84.4094 43.637 85.7608C44.6017 87.1121 45.8344 88.8459 46.3763 89.6136L47.3618 91.0096L48.0884 90.9747L48.8149 90.9398V85.7324V80.525L48.0752 80.4897L47.3355 80.4545V84.3893C47.3355 87.5368 47.306 88.2948 47.1876 88.177C47.1063 88.096 45.84 86.3411 44.3736 84.2774L41.7075 80.525L40.9119 80.4899L40.1162 80.455V85.7269ZM51.4384 80.5447C51.395 80.588 51.3595 82.9257 51.3595 85.7395C51.3595 91.4851 51.2723 90.9989 52.3021 90.9989C52.7479 90.9989 52.8798 90.9543 52.9137 90.7918C52.9377 90.678 52.9417 88.308 52.9227 85.5252L52.8883 80.4658H52.2028C51.8257 80.4658 51.4817 80.5013 51.4384 80.5447ZM58.5954 80.6729C58.5348 80.7867 57.9147 82.2913 57.2174 84.0163C56.5202 85.7412 55.6093 87.9642 55.1932 88.9562C54.777 89.9481 54.4366 90.8161 54.4366 90.8847C54.4366 90.9634 54.7256 90.9968 55.2158 90.9748L55.9951 90.9398L56.5472 89.5787L57.0994 88.2177H59.5036H61.9078L62.39 89.4604C62.6553 90.1439 62.9247 90.7697 62.9886 90.851C63.0605 90.9422 63.3998 90.9989 63.8737 90.9989C64.5489 90.9989 64.6353 90.9737 64.5842 90.7918C64.5044 90.507 60.6063 81.1954 60.3976 80.7912C60.2407 80.4873 60.1793 80.4658 59.4676 80.4658C58.8626 80.4658 58.6827 80.5085 58.5954 80.6729ZM65.3923 80.6517C65.2619 80.7822 65.2064 81.0647 65.2064 81.5985V82.3594H65.6206C66.1805 82.3594 66.1737 82.6784 65.6003 83.313C65.2259 83.7275 65.1808 83.8367 65.2748 84.1026C65.4454 84.5848 65.6557 84.5573 66.2085 83.9802C66.7751 83.3889 66.9817 82.7469 66.9817 81.5765C66.9817 80.6311 66.8591 80.4658 66.1575 80.4658C65.7888 80.4658 65.5108 80.5334 65.3923 80.6517ZM16.6829 83.4224V84.9858L18.3102 84.9421C20.1209 84.8936 20.5632 84.7555 20.8823 84.1385C21.263 83.4022 21.043 82.5936 20.352 82.19C20.0033 81.9865 19.683 81.9415 18.3107 81.9038L16.6829 81.8591V83.4224ZM58.5953 84.4568C58.1306 85.614 57.7504 86.6274 57.7504 86.7087C57.7504 86.8202 58.1711 86.8567 59.4594 86.8567C60.3995 86.8567 61.1939 86.8156 61.2249 86.7655C61.2727 86.6883 59.6159 82.5285 59.4854 82.398C59.4605 82.3731 59.0599 83.2997 58.5953 84.4568ZM32.4895 95.1923C31.7834 95.4546 31.4402 95.7618 31.1946 96.3514C30.8855 97.094 31.0034 97.8393 31.5159 98.3829C31.8075 98.692 32.1375 98.8596 32.9318 99.1019C34.22 99.4948 34.5774 99.7761 34.5774 100.397C34.5774 100.726 34.4944 100.935 34.2774 101.152C33.6907 101.739 32.1885 101.607 31.8303 100.938C31.6971 100.689 31.5808 100.716 31.0706 101.115C30.8467 101.29 30.8478 101.3 31.1298 101.602C31.648 102.157 32.2825 102.405 33.1966 102.409C33.8923 102.412 34.1188 102.361 34.5759 102.093C35.8182 101.365 35.9664 99.7131 34.8648 98.8728C34.6315 98.6949 34.0318 98.4231 33.5323 98.2689C32.4153 97.9244 32.0684 97.6295 32.0684 97.0247C32.0684 96.6723 32.1454 96.5176 32.4476 96.2634C32.7799 95.9837 32.9043 95.9507 33.4544 95.9964C33.8834 96.032 34.1686 96.1296 34.3551 96.3049C34.6946 96.6238 34.7966 96.6245 35.1948 96.3112C35.5034 96.0686 35.5066 96.054 35.2996 95.8253C34.7154 95.1793 33.3517 94.8722 32.4895 95.1923ZM61.9304 95.3539C60.5406 95.8499 59.6301 97.0792 59.5457 98.5737C59.4927 99.5123 59.6418 100.112 60.1129 100.855C60.7298 101.828 61.8586 102.381 63.2601 102.396C64.2288 102.407 64.9393 102.188 65.6286 101.667C66.3705 101.107 66.8245 100.357 66.9658 99.4593C67.2378 97.7313 66.484 96.1996 65.0165 95.4983C64.2168 95.1161 62.7841 95.0491 61.9304 95.3539ZM10.734 98.6176C9.97017 100.47 9.34517 102.047 9.34517 102.121C9.34517 102.206 9.52435 102.242 9.82697 102.219C10.305 102.183 10.3117 102.176 10.6915 101.295L11.0744 100.408H12.6403H14.2062L14.588 101.295L14.9698 102.183L15.4871 102.22C15.9405 102.253 15.9962 102.231 15.9383 102.043C15.8664 101.808 14.2273 97.7855 13.5847 96.2655L13.1843 95.3187L12.6536 95.2838L12.1228 95.2489L10.734 98.6176ZM16.9196 98.7509V102.242H17.3894H17.8593L17.8924 100.733L17.9256 99.2243L18.5765 99.1928L19.2274 99.1614L20.031 100.702L20.8345 102.242H21.3624C21.6528 102.242 21.8903 102.214 21.8903 102.179C21.8903 102.144 21.5144 101.452 21.0548 100.64C20.5954 99.8289 20.2524 99.1117 20.2926 99.0466C20.3328 98.9816 20.4753 98.9284 20.6094 98.9284C20.7433 98.9284 21.0553 98.726 21.3027 98.4788C22.0399 97.7415 22.0806 96.6844 21.4013 95.9108C20.9208 95.3634 20.471 95.261 18.5469 95.2602L16.9196 95.2595V98.7509ZM22.482 95.7428V96.226L23.5768 96.1913L24.6715 96.1566L24.7031 99.1994L24.7347 102.242H25.2061H25.6775V99.2243V96.2063H26.788C27.799 96.2063 27.9041 96.1852 27.9605 95.9696C27.9944 95.8395 27.9944 95.6264 27.9605 95.4962C27.9008 95.2683 27.799 95.2595 25.1902 95.2595H22.482V95.7428ZM36.2698 95.4962C36.2285 95.6264 36.2289 95.8406 36.2706 95.9722C36.3407 96.193 36.4317 96.2092 37.4326 96.1793L38.5185 96.1472L38.5501 99.1947L38.5817 102.242H39.051H39.5204L39.552 99.1947L39.5836 96.1472L40.6784 96.1131L41.7731 96.0791V95.6693V95.2595H39.059C36.4489 95.2595 36.342 95.2686 36.2698 95.4962ZM42.7417 98.0112C42.784 101.13 42.822 101.278 43.7538 101.932C44.1594 102.217 44.3967 102.287 45.1293 102.334C46.3502 102.412 46.7922 102.305 47.3608 101.792C48.1597 101.071 48.2073 100.864 48.2592 97.8928L48.3052 95.2595H47.7611H47.2172L47.2167 97.8336C47.2164 100.207 47.1977 100.438 46.9774 100.8C46.5424 101.513 45.3828 101.748 44.5053 101.301C43.7576 100.919 43.6667 100.527 43.6667 97.6833V95.2595H43.1855H42.7042L42.7417 98.0112ZM50.0032 95.4075C49.9774 95.4889 49.9658 97.0466 49.9774 98.8692L49.9984 102.183L51.892 102.179C53.6118 102.175 53.8356 102.15 54.3302 101.908C55.6075 101.282 56.1497 100.357 56.1514 98.8016C56.1525 97.9057 56.1111 97.7059 55.7964 97.0906C55.3759 96.2685 54.6951 95.7005 53.8181 95.4401C53.033 95.207 50.0749 95.1817 50.0032 95.4075ZM57.3692 98.751L57.3361 102.242H57.8391L58.3421 102.242V98.7509V95.2595H57.8721H57.4022L57.3692 98.751ZM62.3516 96.1546C61.0752 96.5477 60.3077 97.9119 60.5698 99.3215C60.7186 100.122 61.0977 100.684 61.8028 101.151C62.1882 101.406 62.4544 101.478 63.1246 101.511C63.8648 101.547 64.0403 101.512 64.6129 101.211C65.4823 100.755 65.9192 100.063 66.0039 99.0079C66.1119 97.6628 65.4209 96.5987 64.1479 96.1495C63.5292 95.9312 63.0728 95.9325 62.3516 96.1546ZM17.9453 96.4134C17.9134 96.5925 17.8958 97.0851 17.9064 97.5082L17.9256 98.2775L19.0663 98.2701C20.4023 98.2614 20.7702 98.0988 20.8893 97.4643C20.9908 96.9232 20.7026 96.3876 20.2193 96.2191C20.0123 96.147 19.4291 96.088 18.9232 96.088C18.0129 96.088 18.003 96.0913 17.9453 96.4134ZM51.0044 98.733V101.414H51.9955C53.5667 101.414 54.4524 100.998 54.9146 100.043C55.2625 99.3245 55.2722 98.2172 54.9362 97.562C54.43 96.5746 53.762 96.2334 52.1242 96.1259L51.0044 96.0522V98.733ZM12.5597 96.6442C12.38 96.9799 11.4755 99.2997 11.4755 99.4246C11.4755 99.4772 12.008 99.5201 12.659 99.5201C13.3099 99.5201 13.8425 99.498 13.8425 99.471C13.8425 99.444 13.6091 98.8183 13.3239 98.0804C13.0386 97.3426 12.7813 96.6591 12.752 96.5617C12.7109 96.4253 12.6667 96.4442 12.5597 96.6442Z" fill="#5513AC"/>
</svg>
