<svg width="72" height="124" viewBox="0 0 72 124" fill="none" xmlns="http://www.w3.org/2000/svg">
<path d="M64.5215 101.618C66.0148 104.138 60.1348 107.405 39.5082 115.618C17.6682 124.298 12.5346 125.418 11.8812 121.965C11.0412 117.205 62.0015 97.6048 64.5215 101.618Z" fill="#5513AC"/>
<path d="M34.0946 2.4045C41.9346 -1.51555 43.6147 -0.675629 57.3347 13.9777C71.5213 29.0977 73.5746 32.3647 70.9612 35.2579C66.2012 40.4846 61.1611 37.6847 42.6811 19.8579C29.0545 6.69793 28.3079 5.29783 34.0946 2.4045Z" fill="#5513AC"/>
<path d="M4.22782 51.0316C9.82782 48.1382 12.4412 48.2317 22.428 51.5917C52.0147 61.6717 73.9482 66.5248 62.9348 71.9381C58.4549 74.1781 52.7613 72.8716 17.7613 62.2316C-1.55885 56.2582 -3.23885 54.9516 4.22782 51.0316Z" fill="#5513AC"/>
</svg>
