<svg width="160" height="23" viewBox="0 0 160 23" fill="none" xmlns="http://www.w3.org/2000/svg">
<path fill-rule="evenodd" clip-rule="evenodd" d="M8.98445 0.10726C0.0274363 0.52976 -0.986606 1.12118 1.54839 4.24768C4.33687 7.71218 10.1675 8.55743 55.4595 9.99393C3.15393 11.0078 -1.66265 12.1908 0.449852 16.1623C3.15385 21.1478 20.4764 20.6408 104.807 20.8098C130.073 20.8943 144.1 22.3308 151.282 21.9928C161.253 21.4858 158.803 17.5988 154.662 15.8243L156.944 15.4018C162.943 14.3033 159.31 7.37443 151.62 5.34643C144.86 3.57193 105.99 1.71276 68.557 1.37476C19.04 1.03676 19.209 -0.39974 8.98445 0.10726Z" fill="white"/>
</svg>
