<svg width="50" height="51" viewBox="0 0 50 51" fill="none" xmlns="http://www.w3.org/2000/svg">
<g clip-path="url(#clip0_80_286)">
<mask id="mask0_80_286" style="mask-type:alpha" maskUnits="userSpaceOnUse" x="0" y="1" width="50" height="66">
<path fill-rule="evenodd" clip-rule="evenodd" d="M49.2993 1.38314C49.2993 1.5782 48.403 2.40638 47.8552 2.71761C47.7547 2.77467 47.7548 2.76514 47.8561 2.63712C48.0144 2.43684 48.2352 2.03091 48.2352 1.94006C48.2352 1.8988 48.0043 2.09319 47.7222 2.37207C47.0985 2.98832 46.7747 3.21181 45.5638 3.8614C43.5101 4.96316 42.5163 5.79527 41.9411 6.895C41.7615 7.23835 41.5676 7.64646 41.5102 7.80193C41.4527 7.95739 41.4033 8.02586 41.4004 7.95406C41.3901 7.70398 41.777 6.81731 42.1203 6.30368C42.7484 5.3641 43.5317 4.77384 45.8987 3.4563C46.3901 3.18279 46.7813 2.94812 46.768 2.93489C46.7547 2.92166 46.404 3.05801 45.9885 3.23796C43.0701 4.50184 41.695 5.54035 40.9757 7.02318C40.7933 7.3991 40.5901 7.91832 40.524 8.17702C40.3743 8.7635 40.1823 10.0134 40.1726 10.4653C40.1659 10.7807 40.1608 10.789 40.1032 10.5786C40.069 10.4539 40.0183 10.1563 39.9906 9.91734C39.9628 9.67836 39.9108 9.48277 39.875 9.48277C39.8392 9.48277 39.7889 9.67836 39.7631 9.91734C39.6445 11.0196 39.625 11.1186 39.566 10.9187C39.5353 10.8148 39.503 10.5087 39.4942 10.2385L39.4782 9.74729L39.3726 10.163C39.3145 10.3916 39.232 11.0548 39.1891 11.6367C38.9844 14.42 38.8952 14.7449 37.5392 17.6451C37.1408 18.4973 36.3189 20.2828 35.7126 21.613C33.8582 25.6816 31.1872 31.4296 29.4437 35.1035C28.8815 36.2882 28.3262 37.4701 28.2098 37.7298C28.0932 37.9897 27.9757 38.2022 27.9486 38.2022C27.9023 38.2022 27.4107 37.2644 27.4107 37.176C27.4107 37.1536 27.4451 37.1564 27.4872 37.1822C27.6018 37.2527 27.6631 37.0221 27.5713 36.8653C27.4968 36.7378 27.4912 36.7375 27.489 36.8607C27.4852 37.0739 27.3565 37.0128 27.2661 36.755C27.1517 36.4286 27.1654 36.3215 27.2991 36.4972C27.475 36.7285 27.4315 36.5744 27.1498 35.9681C26.952 35.5424 26.8601 35.4176 26.7698 35.4521C26.7035 35.4774 26.6507 35.4584 26.6507 35.4095C26.6507 35.361 26.6885 35.3446 26.7348 35.373C26.8518 35.445 26.7559 35.0386 26.54 34.548C26.4457 34.3339 26.2734 33.9377 26.1568 33.6676C25.8823 33.0312 25.1396 31.5514 25.0947 31.5514C25.0756 31.5514 25.1302 31.7129 25.2158 31.9104C25.5089 32.5857 25.6622 33.0316 25.551 32.8853C25.4925 32.8084 25.3028 32.3833 25.1293 31.9405C24.9559 31.4979 24.7663 31.0867 24.708 31.0269C24.5135 30.8267 24.498 31.0158 24.6809 31.3587C24.8141 31.6083 24.8394 31.72 24.777 31.7821C24.7145 31.8442 24.6577 31.7701 24.5617 31.5011C24.49 31.3002 24.3321 30.8899 24.2109 30.5895C24.0898 30.2891 23.9906 30.0203 23.9906 29.9921C23.9906 29.9021 24.3113 30.2206 24.4572 30.4555C24.5347 30.5802 24.5981 30.6556 24.5983 30.6231C24.5987 30.5423 24.2383 29.8413 24.0182 29.4945C23.9194 29.3389 23.8386 29.1747 23.8386 29.1297C23.8386 29.0069 23.4581 28.2317 23.2483 27.9269C22.972 27.5258 22.4451 26.4593 21.85 25.0969C21.5577 24.4278 20.9143 23.064 20.4204 22.0664C19.9264 21.0688 19.2408 19.6404 18.8967 18.8922C18.5527 18.1439 18.1401 17.2716 17.9799 16.9538C17.8196 16.6359 17.5652 15.9578 17.4145 15.4469C17.2638 14.9361 17.1132 14.4649 17.0799 14.4C17.0466 14.3351 16.9994 14.1052 16.9749 13.8892C16.9129 13.3404 16.7463 13.0525 16.4464 12.9757C16.2443 12.924 16.1732 12.846 16.0484 12.539C15.9648 12.3334 15.6997 11.8318 15.4594 11.4244C15.219 11.0168 15.0223 10.6514 15.0223 10.6122C15.0223 10.4669 15.1739 10.5474 15.2792 10.7487C15.339 10.863 15.5652 11.1946 15.7818 11.4856C15.9984 11.7765 16.2042 12.0653 16.2393 12.1274C16.2743 12.1893 16.3239 12.2192 16.3496 12.1937C16.4357 12.1081 16.1798 11.5178 15.7513 10.8135C15.5176 10.4294 15.3263 10.0733 15.3263 10.0221C15.3263 9.97085 15.2456 9.85408 15.1469 9.76256C15.0482 9.67103 14.946 9.52812 14.9197 9.44498C14.8726 9.29556 14.9022 9.29405 17.5142 9.31461C19.5983 9.33093 20.1851 9.31446 20.2925 9.23639C20.4688 9.10813 20.5399 8.58287 20.405 8.40405C20.3093 8.27708 19.8072 8.27021 10.728 8.2721C1.83226 8.27391 1.1452 8.28313 1.05696 8.40164C0.930952 8.57078 0.935284 9.13995 1.06342 9.24568C1.13175 9.30206 1.94543 9.336 3.55249 9.34945L5.94009 9.3694L6.2229 9.93623C6.3784 10.248 6.74321 11.0302 7.03346 11.6745C7.32379 12.3188 7.90908 13.6112 8.33408 14.5465C9.5546 17.2319 10.9518 20.3377 11.7342 22.1042C12.1299 22.9979 12.9244 24.7494 13.4996 25.9964C14.0747 27.2435 14.6567 28.5188 14.7928 28.8306C14.9289 29.1424 15.2202 29.7885 15.4402 30.2666C16.682 32.965 18.2755 36.4957 20.7101 41.9433C24.2021 49.7565 23.8818 49.0767 24.1115 49.1635C24.3704 49.2614 25.8856 49.2568 26.1728 49.1572C26.2987 49.1135 26.4447 48.986 26.4971 48.8737C26.5496 48.7615 27.2235 47.2784 27.9946 45.5778C28.7656 43.8773 29.597 42.0578 29.8421 41.5344C30.0872 41.0111 30.577 39.9367 30.9307 39.1469C31.2843 38.3571 32.1109 36.5206 32.7677 35.0657C33.4243 33.6109 34.2103 31.8594 34.5144 31.1735C35.2342 29.5496 35.7674 28.3675 36.9856 25.6941C38.303 22.8032 38.7999 21.6414 39.7653 19.1945C40.6386 16.9811 41.0688 16.1314 41.6376 15.4967C42.1816 14.8898 42.6582 14.5772 43.6543 14.1739C45.1521 13.5675 46.0459 13.0798 46.963 12.3685C47.4946 11.9561 47.489 11.8586 46.9557 12.2396C46.7454 12.3899 46.2655 12.6455 45.8893 12.8078C45.5131 12.9701 45.0285 13.1919 44.8126 13.3007C44.5967 13.4095 44.4043 13.4829 44.3852 13.4639C44.334 13.413 44.6821 13.1895 45.5327 12.7275C46.626 12.1335 47.8361 10.9358 48.4674 9.82287C48.6125 9.56704 48.5239 9.63105 47.8916 10.2385C47.1145 10.9853 47.1049 10.9774 47.7532 10.1235C48.4828 9.16262 48.83 8.5116 49.0231 7.74275C49.2432 6.86583 49.3265 6.2829 49.2223 6.34684C49.1811 6.37223 49.1473 6.47607 49.1473 6.57765C49.1473 6.85933 48.7303 7.99442 48.4084 8.58892C48.0553 9.24107 47.4843 9.94047 46.9376 10.3904L46.5252 10.7298L46.9725 10.2385C47.5286 9.62788 48.1641 8.67462 48.5064 7.93782C48.9747 6.93014 49.0653 6.25063 49.0052 4.20149C48.9937 3.81167 48.9588 3.52258 48.9275 3.55909C48.8963 3.59566 48.7758 3.87266 48.6597 4.17481C48.4724 4.66267 47.7683 5.85505 47.6677 5.85505C47.6464 5.85505 47.7437 5.67646 47.8838 5.45827C48.2392 4.90452 48.4867 4.39898 48.7232 3.74372C48.9766 3.04206 49.4003 1.39568 49.3424 1.33809C49.3186 1.31451 49.2993 1.33477 49.2993 1.38314ZM48.5173 2.43774C48.1627 2.79583 48.0106 3.06436 48.3196 2.78699C48.4942 2.63024 48.9496 2.07618 48.9037 2.07618C48.8882 2.07618 48.7143 2.2389 48.5173 2.43774ZM47.5512 3.39879C47.5512 3.41957 47.5683 3.43657 47.5892 3.43657C47.6101 3.43657 47.6272 3.41957 47.6272 3.39879C47.6272 3.378 47.6101 3.361 47.5892 3.361C47.5683 3.361 47.5512 3.378 47.5512 3.39879ZM42.8011 4.47924C41.4109 5.24219 40.5564 6.29083 40.2117 7.65659C40.0582 8.26499 40.1228 8.35448 40.2928 7.76898C40.6529 6.52936 41.7206 5.20592 42.9341 4.49541C43.0909 4.40366 43.2191 4.31494 43.2191 4.29823C43.2191 4.25137 43.2057 4.25712 42.8011 4.47924ZM48.8492 4.46314C48.8529 4.55119 48.8709 4.5691 48.8952 4.50887C48.9171 4.4543 48.9144 4.38908 48.8891 4.36399C48.8639 4.33889 48.846 4.38348 48.8492 4.46314ZM48.7672 4.72139C48.7672 4.77679 48.79 4.79946 48.8179 4.7718C48.8457 4.74406 48.8457 4.69872 48.8179 4.67098C48.79 4.64332 48.7672 4.66599 48.7672 4.72139ZM48.6912 4.94812C48.6912 5.00352 48.714 5.02619 48.7419 4.99853C48.7697 4.9708 48.7697 4.92545 48.7419 4.89771C48.714 4.87005 48.6912 4.89273 48.6912 4.94812ZM47.4752 6.044C47.4752 6.06478 47.4923 6.08179 47.5132 6.08179C47.5341 6.08179 47.5512 6.06478 47.5512 6.044C47.5512 6.02321 47.5341 6.00621 47.5132 6.00621C47.4923 6.00621 47.4752 6.02321 47.4752 6.044ZM43.5231 7.47997C43.5231 7.50075 43.5402 7.51776 43.5611 7.51776C43.582 7.51776 43.5991 7.50075 43.5991 7.47997C43.5991 7.45918 43.582 7.44218 43.5611 7.44218C43.5402 7.44218 43.5231 7.45918 43.5231 7.47997ZM43.3494 7.9874C43.2802 8.20264 43.2362 8.39128 43.2515 8.40662C43.267 8.42197 43.3379 8.26 43.4091 8.0468C43.4803 7.83359 43.5243 7.64495 43.5069 7.62765C43.4895 7.61026 43.4186 7.77223 43.3494 7.9874ZM43.1431 8.53805C43.1431 8.55884 43.1602 8.57584 43.1811 8.57584C43.202 8.57584 43.2191 8.55884 43.2191 8.53805C43.2191 8.51727 43.202 8.50026 43.1811 8.50026C43.1602 8.50026 43.1431 8.51727 43.1431 8.53805ZM14.3383 9.35981C14.3383 9.4697 14.6639 10.0874 14.7219 10.0874C14.7617 10.0874 14.7943 10.1704 14.7943 10.2719C14.7943 10.3734 14.8285 10.4774 14.8703 10.5031C14.9969 10.5808 14.9528 10.2222 14.7927 9.87131C14.71 9.69008 14.6423 9.49456 14.6423 9.43674C14.6423 9.37893 14.5739 9.33162 14.4903 9.33162C14.4067 9.33162 14.3383 9.34431 14.3383 9.35981ZM15.0983 10.0829C15.0983 10.1221 15.1322 10.1748 15.1735 10.2002C15.2165 10.2267 15.2293 10.1964 15.2034 10.1291C15.1528 9.99821 15.0983 9.97425 15.0983 10.0829ZM15.7064 10.2008C15.7064 10.2631 15.7395 10.3141 15.78 10.3141C15.8204 10.3141 15.8339 10.2631 15.8099 10.2008C15.7858 10.1384 15.7526 10.0874 15.7362 10.0874C15.7198 10.0874 15.7064 10.1384 15.7064 10.2008ZM15.2503 10.3519C15.2503 10.3727 15.2674 10.3897 15.2883 10.3897C15.3092 10.3897 15.3263 10.3727 15.3263 10.3519C15.3263 10.3311 15.3092 10.3141 15.2883 10.3141C15.2674 10.3141 15.2503 10.3311 15.2503 10.3519ZM15.3263 10.5031C15.3263 10.5238 15.3434 10.5409 15.3643 10.5409C15.3852 10.5409 15.4023 10.5238 15.4023 10.5031C15.4023 10.4823 15.3852 10.4653 15.3643 10.4653C15.3434 10.4653 15.3263 10.4823 15.3263 10.5031ZM15.4023 10.6542C15.4023 10.675 15.4194 10.692 15.4403 10.692C15.4613 10.692 15.4784 10.675 15.4784 10.6542C15.4784 10.6334 15.4613 10.6164 15.4403 10.6164C15.4194 10.6164 15.4023 10.6334 15.4023 10.6542ZM39.647 11.2211C39.647 11.2764 39.6698 11.2991 39.6977 11.2715C39.7255 11.2437 39.7255 11.1984 39.6977 11.1706C39.6698 11.143 39.647 11.1657 39.647 11.2211ZM16.9995 12.747C16.9989 12.8589 17.0326 12.9714 17.0744 12.9971C17.1714 13.0568 17.1714 12.8064 17.0744 12.657C17.0168 12.5684 17.0004 12.5879 16.9995 12.747ZM16.4409 13.5262C16.4658 13.6924 16.5319 13.9305 16.5877 14.0552L16.6892 14.2819L16.6438 13.9796C16.6189 13.8134 16.5529 13.5753 16.4971 13.4506L16.3955 13.2239L16.4409 13.5262ZM17.198 13.564C17.2233 13.7094 17.2731 13.8795 17.3088 13.9418C17.4248 14.1441 17.3833 13.7773 17.2619 13.5262L17.1523 13.2994L17.198 13.564ZM16.0104 13.6017C16.0104 13.6225 16.0275 13.6395 16.0484 13.6395C16.0693 13.6395 16.0864 13.6225 16.0864 13.6017C16.0864 13.581 16.0693 13.564 16.0484 13.564C16.0275 13.564 16.0104 13.581 16.0104 13.6017ZM17.6064 14.5892C17.6064 14.7062 17.938 15.3778 17.9958 15.3778C18.1023 15.3778 18.074 15.2226 17.9037 14.8727C17.7691 14.5962 17.6064 14.441 17.6064 14.5892ZM16.4145 15.3211C16.4661 15.5188 16.5095 15.5892 16.5272 15.5041C16.5648 15.3226 16.4815 14.9999 16.397 14.9999C16.3604 14.9999 16.3683 15.1445 16.4145 15.3211ZM17.0744 17.2295C17.0744 17.2918 17.1075 17.3428 17.148 17.3428C17.1885 17.3428 17.2019 17.2918 17.1779 17.2295C17.1538 17.1671 17.1207 17.1161 17.1043 17.1161C17.0878 17.1161 17.0744 17.1671 17.0744 17.2295ZM18.8227 18.0409C18.8221 18.1517 19.5423 19.5346 19.6005 19.5346C19.6335 19.5346 19.5401 19.2972 19.3932 19.007C19.0928 18.4138 18.8231 17.9572 18.8227 18.0409ZM18.2144 18.1941C18.2144 18.281 18.5319 19.0491 18.5928 19.1097C18.7271 19.2432 18.6823 19.0495 18.4749 18.599C18.3119 18.2449 18.2144 18.0935 18.2144 18.1941ZM17.6824 19.7568C17.6824 19.796 17.7162 19.8487 17.7576 19.8741C17.8006 19.9006 17.8134 19.8703 17.7874 19.803C17.7369 19.6721 17.6824 19.6482 17.6824 19.7568ZM17.8344 20.0258C17.8344 20.0466 17.8515 20.0636 17.8724 20.0636C17.8933 20.0636 17.9104 20.0466 17.9104 20.0258C17.9104 20.005 17.8933 19.988 17.8724 19.988C17.8515 19.988 17.8344 20.005 17.8344 20.0258ZM17.9104 20.2148C17.9104 20.2702 17.9332 20.2928 17.9611 20.2652C17.9889 20.2374 17.9889 20.1921 17.9611 20.1644C17.9332 20.1367 17.9104 20.1594 17.9104 20.2148ZM19.2816 20.7957C19.2751 20.9796 20.1022 23.1079 20.1122 22.9328C20.1134 22.9106 19.9278 22.4005 19.6997 21.7992C19.4715 21.198 19.2834 20.7464 19.2816 20.7957ZM20.3104 21.0461C20.4686 21.3746 20.4945 21.4041 20.4945 21.256C20.4945 21.1914 20.4244 21.0581 20.3388 20.96L20.183 20.7816L20.3104 21.0461ZM19.7368 21.1595C19.7368 21.2011 19.77 21.2861 19.8105 21.3484C19.851 21.4108 19.8841 21.4278 19.8841 21.3862C19.8841 21.3447 19.851 21.2596 19.8105 21.1973C19.77 21.1349 19.7368 21.1179 19.7368 21.1595ZM18.7893 21.5217C18.8179 21.5962 18.8604 21.6382 18.8838 21.6149C18.9072 21.5917 18.8839 21.5307 18.8319 21.4794C18.7568 21.4053 18.7481 21.414 18.7893 21.5217ZM20.4622 23.2757C20.4911 23.3588 20.5123 23.4864 20.5094 23.5591C20.5063 23.6318 20.5377 23.6913 20.5791 23.6913C20.6204 23.6913 20.7043 23.8104 20.7654 23.9559C20.8265 24.1013 20.8936 24.2204 20.9145 24.2204C20.9354 24.2204 20.906 24.1099 20.8492 23.9747C20.718 23.6628 20.392 23.0739 20.4622 23.2757ZM20.0813 23.8646C20.1099 23.9391 20.1524 23.9811 20.1758 23.9578C20.1992 23.9346 20.1759 23.8736 20.1239 23.8223C20.0488 23.7482 20.0401 23.7569 20.0813 23.8646ZM20.1905 24.107C20.1905 24.1278 20.2076 24.1448 20.2285 24.1448C20.2494 24.1448 20.2665 24.1278 20.2665 24.107C20.2665 24.0862 20.2494 24.0692 20.2285 24.0692C20.2076 24.0692 20.1905 24.0862 20.1905 24.107ZM21.1815 24.9101C21.1764 24.9905 21.5542 25.8075 21.5966 25.8075C21.6186 25.8075 21.5891 25.6946 21.5312 25.5566C21.3988 25.2416 21.1856 24.8473 21.1815 24.9101ZM20.8745 25.0074C20.8745 25.0942 21.4083 26.1375 21.4964 26.2232C21.5392 26.2647 21.4299 26.0097 21.2535 25.6563C20.9226 24.9935 20.8745 24.9111 20.8745 25.0074ZM21.6367 26.9512C21.6355 26.9775 21.9616 27.7427 22.3614 28.6517C23.1077 30.3485 23.826 31.7781 23.9322 31.7781C23.9651 31.7781 23.8428 31.4806 23.6604 31.1168C23.478 30.7531 23.1685 30.0644 22.9727 29.5864C22.663 28.8305 21.6429 26.8183 21.6367 26.9512ZM22.1718 27.4075C22.1497 27.6205 23.966 31.4196 24.2614 31.7781C24.3127 31.8405 24.4067 32.0445 24.4702 32.2316C24.6317 32.7068 24.8255 33.0637 24.8261 32.8867C24.8267 32.7311 24.4022 31.7263 24.2621 31.5514C24.2121 31.489 23.9549 30.9619 23.6904 30.3799C23.426 29.798 23.1377 29.2028 23.0497 29.0573C22.9617 28.9118 22.7293 28.4697 22.5334 28.0748C22.3374 27.6799 22.1747 27.3797 22.1718 27.4075ZM21.8343 27.9237C21.9076 28.216 22.3151 29.0859 22.3586 29.0427C22.3799 29.0215 22.26 28.7185 22.0922 28.3694C21.9243 28.0203 21.8083 27.8197 21.8343 27.9237ZM23.3095 29.0297C23.3079 29.077 23.3565 29.23 23.4176 29.3698C23.4786 29.5097 23.5299 29.5855 23.5316 29.5384C23.5332 29.4911 23.4846 29.3381 23.4235 29.1983C23.3625 29.0584 23.3112 28.9826 23.3095 29.0297ZM23.5346 29.6997C23.5346 29.7205 23.5517 29.7375 23.5726 29.7375C23.5935 29.7375 23.6106 29.7205 23.6106 29.6997C23.6106 29.679 23.5935 29.6619 23.5726 29.6619C23.5517 29.6619 23.5346 29.679 23.5346 29.6997ZM23.6537 29.9801C23.7635 30.3243 24.3623 31.5043 24.3168 31.2869C24.26 31.0157 23.7134 29.8131 23.6469 29.8131C23.6213 29.8131 23.6243 29.8882 23.6537 29.9801ZM22.7769 29.9265C22.7769 29.968 22.81 30.0531 22.8505 30.1154C22.8911 30.1778 22.9242 30.1948 22.9242 30.1532C22.9242 30.1116 22.8911 30.0266 22.8505 29.9643C22.81 29.9019 22.7769 29.8849 22.7769 29.9265ZM22.9289 30.3044C22.9289 30.3459 22.962 30.431 23.0026 30.4933C23.0431 30.5557 23.0762 30.5727 23.0762 30.5311C23.0762 30.4895 23.0431 30.4045 23.0026 30.3421C22.962 30.2798 22.9289 30.2628 22.9289 30.3044ZM24.5986 30.7956C24.5986 30.851 24.6214 30.8737 24.6493 30.846C24.6771 30.8183 24.6771 30.7729 24.6493 30.7452C24.6214 30.7175 24.5986 30.7402 24.5986 30.7956ZM23.1566 30.8334C23.152 30.9389 23.6312 32.085 23.6656 32.0509C23.6811 32.0355 23.5736 31.7383 23.4268 31.3904C23.28 31.0424 23.1584 30.7918 23.1566 30.8334ZM23.996 32.5814C23.9883 32.7028 24.2204 33.2374 24.2626 33.1955C24.282 33.1763 24.2311 33.011 24.1496 32.8283C24.068 32.6456 23.9989 32.5345 23.996 32.5814ZM25.4346 33.1007C25.4346 33.1215 25.4517 33.1385 25.4726 33.1385C25.4935 33.1385 25.5106 33.1215 25.5106 33.1007C25.5106 33.0799 25.4935 33.0629 25.4726 33.0629C25.4517 33.0629 25.4346 33.0799 25.4346 33.1007ZM25.513 33.2519C25.513 33.2934 25.5461 33.3785 25.5866 33.4408C25.6271 33.5032 25.6603 33.5202 25.6603 33.4786C25.6603 33.437 25.6271 33.352 25.5866 33.2897C25.5461 33.2273 25.513 33.2103 25.513 33.2519ZM25.0497 33.4597C25.2141 33.8745 25.3529 34.1517 25.3557 34.0706C25.3595 33.9585 25.073 33.2897 25.0212 33.2897C24.9998 33.2897 25.0127 33.3661 25.0497 33.4597ZM25.517 34.4611C25.517 34.5027 25.5825 34.6557 25.6626 34.8012C25.7427 34.9467 25.8082 35.0317 25.8082 34.9902C25.8082 34.9486 25.7427 34.7955 25.6626 34.6501C25.5825 34.5046 25.517 34.4195 25.517 34.4611ZM26.4332 34.95C26.4774 35.0761 26.5431 35.1975 26.5791 35.2196C26.6151 35.2418 26.6084 35.1566 26.5641 35.0304C26.5199 34.9042 26.4542 34.7828 26.4182 34.7607C26.3822 34.7386 26.3889 34.8237 26.4332 34.95ZM26.1958 35.118C26.1952 35.1882 26.2288 35.2668 26.2706 35.2925C26.3669 35.3516 26.3669 35.2515 26.2706 35.1035C26.2072 35.0058 26.1968 35.0078 26.1958 35.118ZM26.1946 35.6281C26.1946 35.6673 26.2285 35.72 26.2698 35.7454C26.3128 35.7719 26.3256 35.7416 26.2997 35.6743C26.2491 35.5434 26.1946 35.5194 26.1946 35.6281ZM25.1306 35.6704C25.1306 35.6911 25.1477 35.7081 25.1686 35.7081C25.1895 35.7081 25.2066 35.6911 25.2066 35.6704C25.2066 35.6496 25.1895 35.6326 25.1686 35.6326C25.1477 35.6326 25.1306 35.6496 25.1306 35.6704ZM25.2066 35.8215C25.2066 35.8423 25.2237 35.8593 25.2446 35.8593C25.2655 35.8593 25.2826 35.8423 25.2826 35.8215C25.2826 35.8007 25.2655 35.7837 25.2446 35.7837C25.2237 35.7837 25.2066 35.8007 25.2066 35.8215ZM26.39 36.0105C26.5586 36.6394 27.5355 38.8824 27.6408 38.8824C27.6717 38.8824 27.7156 38.7889 27.7384 38.6746C27.7696 38.5184 27.7339 38.4236 27.5953 38.2937C27.4937 38.1984 27.4107 38.066 27.4107 37.9994C27.4107 37.7776 26.8686 36.5045 26.6925 36.3128C26.5971 36.2088 26.4786 36.0558 26.4292 35.9727C26.3469 35.8342 26.3437 35.8374 26.39 36.0105ZM25.2826 35.9727C25.2826 35.9935 25.2997 36.0105 25.3206 36.0105C25.3415 36.0105 25.3586 35.9935 25.3586 35.9727C25.3586 35.9519 25.3415 35.9349 25.3206 35.9349C25.2997 35.9349 25.2826 35.9519 25.2826 35.9727ZM26.8787 35.9816C26.8787 36.0232 26.9289 36.1231 26.9902 36.2039C27.0516 36.2845 27.1018 36.3165 27.1018 36.275C27.1018 36.2334 27.0516 36.1333 26.9902 36.0527C26.9289 35.972 26.8787 35.94 26.8787 35.9816ZM25.3586 36.1238C25.3586 36.1446 25.3757 36.1616 25.3966 36.1616C25.4175 36.1616 25.4346 36.1446 25.4346 36.1238C25.4346 36.103 25.4175 36.086 25.3966 36.086C25.3757 36.086 25.3586 36.103 25.3586 36.1238ZM25.4346 36.275C25.4346 36.2958 25.4517 36.3128 25.4726 36.3128C25.4935 36.3128 25.5106 36.2958 25.5106 36.275C25.5106 36.2542 25.4935 36.2372 25.4726 36.2372C25.4517 36.2372 25.4346 36.2542 25.4346 36.275ZM25.5106 36.4261C25.5106 36.4469 25.5277 36.4639 25.5486 36.4639C25.5695 36.4639 25.5866 36.4469 25.5866 36.4261C25.5866 36.4053 25.5695 36.3883 25.5486 36.3883C25.5277 36.3883 25.5106 36.4053 25.5106 36.4261ZM25.5866 36.5773C25.5866 36.5981 25.6037 36.6151 25.6246 36.6151C25.6455 36.6151 25.6626 36.5981 25.6626 36.5773C25.6626 36.5565 25.6455 36.5395 25.6246 36.5395C25.6037 36.5395 25.5866 36.5565 25.5866 36.5773ZM26.3522 36.5395C26.341 36.6589 26.8301 37.9128 27.1094 38.4808C27.4862 39.247 27.4722 39.2243 27.5327 39.1641C27.5581 39.1389 27.4031 38.7336 27.1884 38.2635C26.7128 37.2222 26.357 36.4886 26.3522 36.5395ZM25.6936 36.7662C25.7129 36.8286 25.8969 37.2537 26.1024 37.7109C26.308 38.1682 26.4972 38.6019 26.523 38.6746C26.5488 38.7473 26.6012 38.8068 26.6396 38.8068C26.6779 38.8068 26.6191 38.6118 26.509 38.3734C26.2314 37.7728 25.6507 36.6282 25.6936 36.7662ZM27.7527 37.522C27.7785 37.5636 27.8167 37.5976 27.8376 37.5976C27.8585 37.5976 27.8545 37.5636 27.8287 37.522C27.8028 37.4804 27.7646 37.4464 27.7437 37.4464C27.7228 37.4464 27.7268 37.4804 27.7527 37.522ZM27.4107 37.5598C27.4107 37.5806 27.4278 37.5976 27.4487 37.5976C27.4696 37.5976 27.4867 37.5806 27.4867 37.5598C27.4867 37.539 27.4696 37.522 27.4487 37.522C27.4278 37.522 27.4107 37.539 27.4107 37.5598ZM25.8146 37.6265C25.8146 37.7076 26.0407 38.1266 26.0845 38.1266C26.1054 38.1266 26.066 38.0161 25.997 37.881C25.8558 37.6051 25.8146 37.5476 25.8146 37.6265ZM26.9552 39.0902C26.9554 39.1214 27.0236 39.2489 27.1067 39.3736C27.2856 39.6423 27.3071 39.5726 27.1427 39.2565C27.0306 39.0409 26.9541 38.9731 26.9552 39.0902ZM19.3165 52.6147C18.8227 52.6799 18.1171 52.9677 17.6969 53.2752C16.848 53.8967 16.3745 54.8961 16.3699 56.0763C16.3619 58.1163 17.789 59.515 19.8785 59.515C20.67 59.515 21.2558 59.3776 21.9955 59.0185L22.5465 58.751V57.3191V55.8873H21.3305C20.6617 55.8873 20.112 55.9128 20.1092 55.944C20.1062 55.9752 20.0978 56.1537 20.0903 56.3408L20.0768 56.6809L20.8203 56.7026L21.5638 56.7242L21.5422 57.4957L21.5205 58.2672L21.0265 58.4477C19.9097 58.856 18.7295 58.6162 18.0259 57.8381C17.5803 57.3452 17.415 56.8529 17.4216 56.0385C17.426 55.5017 17.4623 55.3177 17.6427 54.9199C18.1567 53.7863 19.4001 53.2381 20.6202 53.6071C20.9063 53.6936 21.2583 53.851 21.4023 53.9567C21.5463 54.0625 21.7018 54.149 21.7478 54.149C21.794 54.149 21.9644 54.0138 22.1266 53.8486C22.4096 53.5605 22.4163 53.5424 22.2898 53.4035C22.0649 53.1564 21.2817 52.7865 20.743 52.6729C20.2486 52.5688 19.8021 52.5506 19.3165 52.6147ZM46.9052 52.6627C45.857 53.0093 45.3757 53.6918 45.4356 54.7464C45.4605 55.185 45.5052 55.3321 45.6946 55.6007C45.9609 55.9785 46.6113 56.3371 47.2995 56.4854C48.0029 56.6372 48.5094 56.8957 48.6562 57.1778C48.8211 57.4949 48.7634 57.9538 48.5265 58.2098C47.9773 58.8031 46.9357 58.8263 46.2706 58.2602C46.1047 58.119 45.9403 58.004 45.9051 58.0046C45.8699 58.0052 45.7059 58.1196 45.5405 58.2586C45.2467 58.5059 45.2426 58.5158 45.3636 58.6993C45.5359 58.9608 46.1513 59.3362 46.5839 59.4437C46.7872 59.4943 47.2212 59.5195 47.5719 59.5011C48.1001 59.4735 48.2721 59.4288 48.6793 59.213C49.4249 58.8178 49.7455 58.294 49.7519 57.4605C49.756 56.9316 49.6647 56.679 49.3516 56.353C49.0308 56.0191 48.7145 55.865 47.7909 55.5921C46.9009 55.3292 46.819 55.2909 46.5632 55.019C46.3286 54.7698 46.305 54.2836 46.5121 53.9693C46.8961 53.3865 47.9783 53.3112 48.6671 53.8194C48.8002 53.9175 48.9386 53.9979 48.9747 53.9979C49.0108 53.9979 49.1732 53.8627 49.3354 53.6975C49.6254 53.4022 49.628 53.3946 49.4893 53.2422C49.4117 53.1569 49.1355 52.983 48.8755 52.8558C48.3142 52.581 47.4178 52.4931 46.9052 52.6627ZM1.03796 52.7745C1.03796 52.8083 1.35725 53.6671 1.74759 54.6828C2.13786 55.6986 2.68949 57.1419 2.97335 57.8901C3.2573 58.6383 3.52361 59.2931 3.56511 59.345C3.61109 59.4025 3.82671 59.4395 4.11612 59.4395H4.59167L4.99128 58.3625C5.21101 57.7702 5.7795 56.2855 6.25451 55.0635C6.72953 53.8413 7.11813 52.8125 7.11813 52.7772C7.11813 52.7419 6.8848 52.7131 6.59964 52.7131H6.08115L5.50255 54.2813C5.18425 55.1439 4.74481 56.3496 4.52592 56.9608C4.30704 57.5719 4.10465 58.0577 4.07614 58.0401C4.04764 58.0226 3.58669 56.8168 3.05179 55.3607L2.07927 52.7131H1.55865C1.27228 52.7131 1.03796 52.7407 1.03796 52.7745ZM8.14096 52.8075C8.1209 52.8595 8.11337 54.3644 8.12432 56.1518L8.14415 59.4017L8.61917 59.4242L9.09418 59.4466V56.0799V52.7131H8.63581C8.33917 52.7131 8.16452 52.7464 8.14096 52.8075ZM10.6902 56.0287V59.357L10.9442 59.4044C11.0839 59.4305 11.2977 59.4405 11.4192 59.4268L11.6402 59.4017L11.6608 57.909L11.6814 56.4164H12.2067C12.8375 56.4164 12.7582 56.3296 13.6589 58.0035C14.0057 58.6478 14.3399 59.2345 14.4016 59.3072C14.4883 59.4094 14.6321 59.4395 15.0341 59.4395C15.3203 59.4395 15.5544 59.4244 15.5544 59.4061C15.5544 59.3877 15.1607 58.699 14.6797 57.8756L13.8051 56.3786L14.0971 56.2926C14.7509 56.0999 15.1172 55.8436 15.3241 55.4339C15.5256 55.035 15.5727 54.639 15.4746 54.1689C15.4005 53.8139 15.3228 53.6826 14.9952 53.3594C14.7797 53.1467 14.4679 52.9268 14.3003 52.8693C14.0924 52.7979 13.4741 52.7548 12.3433 52.7326L10.6902 52.7003V56.0287ZM24.0666 56.0385V59.3639H24.5606H25.0546V56.0385V52.7131H24.5606H24.0666V56.0385ZM26.7267 56.0728V59.4395H27.1827H27.6387V56.8698C27.6387 54.5491 27.6755 54.0439 27.8179 54.4128C27.8418 54.4747 28.3681 55.2315 28.9876 56.0944C29.6071 56.9573 30.3988 58.0646 30.7468 58.5548L31.3796 59.4463L31.8462 59.424L32.3128 59.4017V56.0763V52.7509L31.8378 52.7283L31.3628 52.7059V55.2186C31.3628 57.2286 31.3438 57.7126 31.2678 57.6374C31.2156 57.5857 30.4023 56.465 29.4607 55.1471L27.7486 52.7509L27.2376 52.7285L26.7267 52.7062V56.0728ZM33.9975 52.7635C33.9696 52.7911 33.9468 54.2839 33.9468 56.0808C33.9468 59.7499 33.8909 59.4395 34.5522 59.4395C34.8385 59.4395 34.9232 59.411 34.945 59.3072C34.9603 59.2345 34.9629 57.7211 34.9508 55.944L34.9286 52.7131H34.4884C34.2463 52.7131 34.0254 52.7357 33.9975 52.7635ZM38.5936 52.8453C38.5547 52.918 38.1565 53.8789 37.7087 54.9804C37.261 56.0819 36.676 57.5015 36.4088 58.135C36.1416 58.7684 35.9229 59.3227 35.9229 59.3665C35.9229 59.4168 36.1085 59.4381 36.4233 59.424L36.9238 59.4017L37.2783 58.5325L37.6329 57.6634H39.1769H40.7208L41.0305 58.457C41.2008 58.8934 41.3738 59.2931 41.4149 59.345C41.461 59.4033 41.6789 59.4395 41.9832 59.4395C42.4168 59.4395 42.4723 59.4234 42.4395 59.3072C42.3882 59.1253 39.885 53.179 39.751 52.9209C39.6502 52.7268 39.6107 52.7131 39.1537 52.7131C38.7652 52.7131 38.6497 52.7404 38.5936 52.8453ZM42.9585 52.8318C42.8747 52.9152 42.8391 53.0956 42.8391 53.4364V53.9223H43.1051C43.4647 53.9223 43.4602 54.1261 43.092 54.5313C42.8516 54.796 42.8227 54.8657 42.883 55.0355C42.9925 55.3435 43.1276 55.3259 43.4826 54.9573C43.8465 54.5798 43.9791 54.1698 43.9791 53.4224C43.9791 52.8187 43.9004 52.7131 43.4498 52.7131C43.2131 52.7131 43.0346 52.7562 42.9585 52.8318ZM11.6782 54.6011V55.5995L12.7233 55.5716C13.8861 55.5407 14.1701 55.4525 14.375 55.0585C14.6195 54.5882 14.4782 54.0719 14.0345 53.8142C13.8106 53.6842 13.6049 53.6554 12.7236 53.6314L11.6782 53.6028V54.6011ZM38.5935 55.2617C38.2952 56.0007 38.051 56.6479 38.051 56.6998C38.051 56.771 38.3211 56.7943 39.1485 56.7943C39.7522 56.7943 40.2623 56.768 40.2822 56.7361C40.3129 56.6867 39.249 54.0303 39.1651 53.9469C39.1492 53.9311 38.8919 54.5228 38.5935 55.2617ZM21.8289 62.1173C21.3755 62.2848 21.1551 62.481 20.9974 62.8575C20.7989 63.3317 20.8746 63.8077 21.2037 64.1548C21.391 64.3522 21.6029 64.4592 22.1129 64.6139C22.9402 64.8649 23.1698 65.0445 23.1698 65.4412C23.1698 65.6513 23.1165 65.7846 22.9771 65.9232C22.6003 66.2979 21.6357 66.2138 21.4056 65.7862C21.3201 65.6274 21.2454 65.6448 20.9177 65.8995C20.7739 66.0113 20.7747 66.0176 20.9557 66.2104C21.2886 66.5651 21.696 66.7232 22.283 66.726C22.7298 66.7281 22.8752 66.6949 23.1688 66.5238C23.9666 66.0589 24.0617 65.0042 23.3543 64.4676C23.2045 64.354 22.8194 64.1805 22.4986 64.082C21.7813 63.862 21.5585 63.6737 21.5585 63.2875C21.5585 63.0624 21.608 62.9636 21.802 62.8013C22.0154 62.6227 22.0953 62.6016 22.4486 62.6308C22.7241 62.6535 22.9072 62.7159 23.027 62.8278C23.245 63.0314 23.3105 63.0319 23.5663 62.8318C23.7644 62.6769 23.7664 62.6676 23.6335 62.5215C23.2584 62.109 22.3826 61.9129 21.8289 62.1173ZM40.7353 62.2205C39.8428 62.5372 39.2581 63.3223 39.2039 64.2766C39.1699 64.8761 39.2656 65.2591 39.5681 65.7335C39.9643 66.3547 40.6892 66.7077 41.5892 66.7177C42.2113 66.7246 42.6675 66.585 43.1102 66.2523C43.5866 65.8942 43.8782 65.4155 43.9689 64.8422C44.1436 63.7387 43.6595 62.7606 42.7171 62.3127C42.2036 62.0687 41.2835 62.0259 40.7353 62.2205ZM7.858 64.3047C7.36749 65.4879 6.96612 66.4947 6.96612 66.542C6.96612 66.596 7.08119 66.6194 7.27553 66.6047C7.5825 66.5817 7.58683 66.5771 7.83072 66.0147L8.07659 65.4479H9.08217H10.0878L10.3329 66.0147L10.5781 66.5815L10.9103 66.6053C11.2015 66.626 11.2373 66.6121 11.2001 66.4919C11.1539 66.3423 10.1014 63.7733 9.68867 62.8027L9.43155 62.198L9.09076 62.1757L8.74989 62.1534L7.858 64.3047ZM11.8303 64.3898V66.6193H12.132H12.4337L12.455 65.6557L12.4763 64.6921L12.8943 64.672L13.3123 64.652L13.8283 65.6356L14.3443 66.6193H14.6834C14.8698 66.6193 15.0223 66.6012 15.0223 66.579C15.0223 66.5568 14.781 66.1146 14.4858 65.5965C14.1908 65.0782 13.9705 64.6202 13.9963 64.5787C14.0222 64.5372 14.1137 64.5032 14.1998 64.5032C14.2858 64.5032 14.4861 64.3739 14.645 64.216C15.1184 63.7452 15.1446 63.0701 14.7083 62.5762C14.3997 62.2266 14.1109 62.1612 12.8753 62.1607L11.8303 62.1603V64.3898ZM15.4023 62.4688V62.7774L16.1054 62.7553L16.8084 62.7331L16.8287 64.6762L16.849 66.6193H17.1517H17.4544V64.6921V62.7649H18.1675C18.8168 62.7649 18.8843 62.7513 18.9205 62.6137C18.9423 62.5306 18.9423 62.3945 18.9205 62.3114C18.8822 62.1658 18.8168 62.1603 17.1415 62.1603H15.4023V62.4688ZM24.2566 62.3114C24.2301 62.3945 24.2303 62.5313 24.2571 62.6154C24.3021 62.7563 24.3606 62.7667 25.0033 62.7476L25.7006 62.7271L25.7209 64.6732L25.7412 66.6193H26.0426H26.3441L26.3643 64.6732L26.3846 62.7271L27.0877 62.7053L27.7907 62.6836V62.4219V62.1603H26.0477C24.3716 62.1603 24.3029 62.1661 24.2566 62.3114ZM28.4127 63.9174C28.4399 65.9093 28.4643 66.0033 29.0627 66.4215C29.3231 66.6035 29.4755 66.6477 29.9459 66.6777C30.73 66.7278 31.0139 66.6592 31.379 66.3316C31.8921 65.8713 31.9226 65.7393 31.9559 63.8419L31.9855 62.1603H31.6361H31.2868L31.2865 63.8041C31.2862 65.3195 31.2742 65.4674 31.1328 65.698C30.8534 66.1538 30.1087 66.3039 29.5453 66.018C29.0651 65.7744 29.0067 65.524 29.0067 63.7081V62.1603H28.6977H28.3886L28.4127 63.9174ZM33.0759 62.2547C33.0593 62.3067 33.0518 63.3015 33.0593 64.4654L33.0728 66.5815L34.2889 66.5788C35.3932 66.5763 35.537 66.5604 35.8546 66.4057C36.6749 66.0062 37.023 65.4157 37.0242 64.4222C37.0249 63.8501 36.9983 63.7225 36.7962 63.3296C36.5261 62.8046 36.089 62.4419 35.5257 62.2756C35.0216 62.1267 33.1219 62.1105 33.0759 62.2547ZM37.8062 64.3899L37.785 66.6194H38.108L38.431 66.6193V64.3898V62.1603H38.1292H37.8274L37.8062 64.3899ZM41.0058 62.7318C40.1861 62.9828 39.6932 63.854 39.8616 64.7542C39.9571 65.2652 40.2005 65.6244 40.6533 65.9223C40.9009 66.0853 41.0718 66.1316 41.5022 66.1526C41.9775 66.1757 42.0902 66.1531 42.4579 65.9611C43.0162 65.6696 43.2968 65.2276 43.3512 64.5539C43.4206 63.6949 42.9768 63.0154 42.1593 62.7286C41.762 62.5892 41.4689 62.59 41.0058 62.7318ZM12.489 62.8971C12.4684 63.0115 12.4572 63.326 12.464 63.5962L12.4763 64.0875L13.2089 64.0828C14.0668 64.0772 14.3031 63.9734 14.3795 63.5682C14.4447 63.2226 14.2597 62.8807 13.9493 62.773C13.8163 62.727 13.4418 62.6893 13.117 62.6893C12.5324 62.6893 12.526 62.6914 12.489 62.8971ZM33.7188 64.3784V66.0903H34.3553C35.3643 66.0903 35.9331 65.8247 36.2299 65.215C36.4533 64.7561 36.4595 64.049 36.2438 63.6306C35.9187 63.0001 35.4897 62.7822 34.438 62.7135L33.7188 62.6665V64.3784ZM9.03041 63.0445C8.91504 63.2588 8.33416 64.7402 8.33416 64.82C8.33416 64.8536 8.67617 64.881 9.09418 64.881C9.51219 64.881 9.8542 64.8669 9.8542 64.8497C9.8542 64.8324 9.70432 64.4329 9.52116 63.9616C9.33799 63.4905 9.17277 63.054 9.15392 62.9918C9.12754 62.9047 9.09912 62.9168 9.03041 63.0445Z" fill="#AC1413"/>
</mask>
<g mask="url(#mask0_80_286)">
<rect x="-4.78223" y="0.434814" width="60.4348" height="51.3043" fill="#5513AC"/>
</g>
</g>
<defs>
<clipPath id="clip0_80_286">
<rect width="50" height="50.8696" fill="white"/>
</clipPath>
</defs>
</svg>
